<?xml version="1.0" encoding="UTF-8"?>
<!-- Generator: Adobe Illustrator 19.0.0, SVG Export Plug-In . SVG Version: 6.00 Build 0)  -->
<svg version="1.0" id="Layer_1" xmlns="http://www.w3.org/2000/svg" xmlns:xlink="http://www.w3.org/1999/xlink" x="0px" y="0px" viewBox="0 0 889.2 526.5" enable-background="new 0 0 889.2 526.5" xml:space="preserve">
<g id="XMLID_25_">
	<path id="XMLID_23_" fill="#FFFFFF" d="M881.1,219.7c0-13.6-7.9-22.7-20.5-24.2c0.7-2.4,0.8-4.9,0.2-7.3c-0.4-1.9-1.2-3.7-2.3-5.3   c0.3-0.1,3.8-1.2,3.8-1.2c0.9-0.3,2-0.6,3.1-1c5.2-1.9,8.4-6.3,8.2-11.7c-0.1-5.2-3.5-9.5-8.7-11.1c-4.3-1.3-8.7-2.7-13-4l-13-4   c-11.6-3.5-23.2-7.1-34.7-10.7c-1.8-0.6-3.6-0.8-5.4-0.8c-1.8,0-3.5,0.3-5.3,0.8c-15.7,4.8-31.4,9.6-47.1,14.4l-12.4,3.8   c-9.5,2.9-10.1,9.8-10,12.6c0.2,3.1,1.7,8.7,9.6,11.1l13.1,4c10.3,3.1,20.8,6.4,31.3,9.6c-5.2-0.8-9.6-1.3-13.2-1.3   c-3.5,0-7.3,0.6-11.7,2c-3.3-0.1-6.4-0.2-9.5-0.2c-1.6,0-6.8,0.1-32.8,1.1c-4.7,0.2-9.2,0.3-13.2,0.3c-6.3,0-11.7-0.3-16.2-0.8   c-1.2-0.1-5.2-0.7-16.2-3.1C657.1,191,650,190,644,190c-8.2,0-19.7,0.9-35.4,2.7c-14.1,1.6-24.8,2.5-31.7,2.5   c-1.3,0-5.4-0.2-15.2-2.4c-9.7-2.2-17.2-3.2-23.1-3.2c-15.4,0-26.6,1.8-34.2,5.6c-4.8,1.2-7,1.3-7.6,1.3c-3.5,0-8.5,0.2-15.3,0.7   c-7.3,0.5-11.2,0.7-13.3,0.7c-2.3,0-6.8-0.3-15.9-1.6c-1.6-0.2-3.1-0.4-4.5-0.6l4.2-7.2l-8-6.9c-16.1-14-35.3-25.3-57.1-33.7   c-11.7-4.4-23.6-7.7-35.4-9.9c-5.2-1-10.5-1.7-15.8-2.2c-6.1-0.6-12.1-0.9-17.8-0.9c-12.1,0-22.3,1.5-30.4,4.5   c5.9-6.6,7.8-10.8,7.8-15.6c0-13.4-7.2-31.5-41.5-41.8c-16.7-5-36.5-7.5-58.9-7.5c-8.4,0-21.2,0.5-38.1,1.5   c-16.4,1-28.7,1.5-36.8,1.5c-21.9,0-21.9-7.1-21.9-11.4c0,0,0.7-4.8,14.4-13c9.9-5.8,15-12.9,15-21.2c0-10.7-7.4-22.2-28.2-22.2   c-5.6,0-11.6,1.1-17.6,3.4C72.2,16,63,22.5,54.3,32.3C44.6,43.1,40,52.8,40,61.9c0,17.4,7.2,32.4,21.5,44.6   c13.7,11.7,31.7,17.7,53.4,17.7c9.6,0,24.4-0.2,44-0.7c18.7-0.4,33.8-0.6,43.7-0.6c7.8,0,16.7,1,26.6,2.9c3.6,0.9,6.2,1.7,8,2.4   c-0.4,0.5-0.8,1.1-1.3,1.7c-10.3,4-16,6.3-19.6,8.1c-3.4,0.4-10.7,1.3-26.1,3c-22.2-7.6-46.2-11.4-71.6-11.4   c-42.9,0-72.9,4.2-92,12.9c-15.2,6.7-18.4,16.3-18.4,23.2c0,9.6,5.9,17.5,15.9,21.2l0.1,0.1l0.7,0.2c3.4,1,6.8,1.5,10.2,1.5   c4.3,0,8.6-0.8,12.8-2.4c10.8-3.7,26.1-6.2,45.5-7.6c-16.2,10.1-24.2,21.7-24.2,34.9c0,6.8,2.5,16.5,14.7,24   c7.6,4.7,16.1,7.1,25.1,7.1c12.1,0,26.9-5.9,46.9-18.5l0.2-0.1l0.2-0.1c5.9-4.2,11.6-10.5,17.6-19.3c5.6-8.3,8.6-11.5,9.8-12.6   c7.2-5.6,20.2-8.6,37.5-8.6c11.9,0,15,2.6,15.3,2.9c0.2,0.2,0.2,0.2,0.2,1.6c0,0.1-0.4,9.5-36.4,29.3c-1.2,0.7-9.7,4.9-62.7,29.8   c-16-1.7-29.3-2.5-39.5-2.5c-6.9,0-21.3,0-34.2,2.9c-24.3,5.4-29.4,18.1-29.4,27.8c0,11.2,5,37.4,51.8,37.4   c6.6,0,13.8-0.8,21.4-2.3l0.2,0l0.2-0.1c23.1-5.8,37.2-9.3,42.8-10.9c26.7,3.5,94.8,28.2,267.6,124.2l4.7,2.6l51.2-12.6l-27.1-17   c-34-21.3-65.9-40.5-94.9-57.1c0-1-0.1-2.1-0.2-3.3c-0.1-1.3-0.1-2.7-0.1-3.3c0-4.5-0.6-10-1.7-16.3l-0.6-3.6l-2.5-2.7   c-1.4-1.6-6.1-8.6-6.1-32.1v-43c1.3-0.1,2.8-0.2,4.7-0.2c0.2,0,0.7,0,1.9,0.2c11.7,2.4,29.4,3.6,55.7,3.6c4.6,0,10-1.1,17-3.3   c5.1-1.7,7-1.8,7-1.8c0.6,0,1.8,0.1,3.5,0.7c-2.1,2.1-5.7,5.2-12.1,9.4c-13.7,8.7-26.6,16.8-39.2,24.9l-0.2,0.1l-0.2,0.2   c-17.8,12.9-26.1,24.8-26.1,37.2c0,12.5,9.9,21.8,29.4,27.5l0.8,0.2l0.2,0.1c13.3,2.9,26.3,5.6,38.7,8.2   c13.7,3.4,17.7,6.6,18.5,7.3l1.1,2.5l2,1.2c0.6,1,2,3.3,4.1,8c2.7,6.3,10.2,16.6,30.3,16.6c21.9,0,29.8-11.9,29.8-23   c0-9.1-2.2-16.4-6.5-22c0.1-4.8,0.2-10.9,0.5-18.3c0.4-10.9,0.5-18.8,0.5-24c0-20.5-1.9-38.6-5.5-54.3c13.9-0.7,24.3-1.7,32.1-3.1   c1.2,0.7,1.6,1.8,1.6,4.5c0,4.4-0.8,13.1-4.7,29.8c-3.5,15.3-5.3,27.3-5.3,35.7c0,23.7,14.1,37.8,37.8,37.8   c7.9,0,16.4-3.7,34.4-21.8c0.8-0.9,1.7-1.7,2.4-2.4c1,5,2.1,11.2,3.5,18.9c2.3,13.2,7.6,44.2,31.3,44.2c4.6,0,12.4-0.9,18.9-6.2   c2,2,4.8,3.9,8.6,5.4c6.4,2.5,15.2,3.8,26.9,3.8c22.1,0,40.9-5.6,55.8-16.6c15.6-11.5,23.9-27.7,23.9-46.8   c0-9.1-5.1-20.4-16.6-36.7c-11.8-16.8-12-22.3-12-22.5c0-17.6,3.6-26.5,10.7-26.5c1.3,0,2.9,0.1,5,0.2c0.5,0.3,1.1,0.6,1.7,0.9l4,2   l16.2-1.5c1.6,0.1,3,0.1,4.1,0.1c0.7,0,1.4,0,2-0.1c0.1,0,0.2,0.1,0.3,0.1c-0.2,5.3-1,12.6-2.2,21.8c-1.7,12.3-2.5,21.9-2.5,28.5   v74.9l1.7,3c5,8.6,13.7,13.3,24.4,13.3c11.8,0,20.6-6.5,24.8-18.3c2.8-8,2.8-16.5,2.8-20.6c0-4.8-0.6-11.4-2-20.8   c-1.4-9.9-1.7-15-1.7-17.6c0-7.8,1.4-19.9,4.2-36.1l0-0.1c2.2-13.6,4.1-20.4,5.3-23.6c1.8-0.3,4.3-0.7,7.8-1.3   c3.8,4.2,9.1,6.7,14.5,6.7l0.5,0l0.4,0c2.6-0.2,5-0.8,7.1-1.6c5-1.9,8.7-5.1,11.1-7.3c1-0.9,4-3.7,3.9-8.3c0-1.2-0.3-2.4-0.7-3.3   C880.7,224.2,881.1,221.6,881.1,219.7z M821,194.4c2.5-0.8,5-1.5,7.5-2.3c0.7-0.1,1.3-0.3,1.9-0.5c0,1.7,0.3,3.4,0.9,5   c-1.2,0.1-2.3,0.2-3.5,0.3c-7.7,0.7-14.2,1.1-19.3,1.3C812.6,197,816.8,195.7,821,194.4z M649.1,321.7l0-0.3   c-0.1-2.2,0.2-7.7,3.7-19.4c3.6-11.8,5.2-20.4,5.2-27c0-13.2-5.3-24.2-15.2-31.7l-4-3.1h-7.9c-12.6,0-25.8,7.9-42.7,25.6   c-5.3,5.5-9.7,9.2-13.2,11.7c0.8-5.4,2-12,3.4-19.8l0-0.2c2-11.8,3.4-18.1,4.3-21.4c1.5-0.2,3.5-0.4,6.2-0.4c2,0,6.1,0.2,13.9,1   c7.5,0.8,13.2,1.1,17.2,1.1c7.1,0,17.6-0.6,31.3-1.6c12.6-1,22.5-1.5,28.5-1.5c5.1,0,9.1,0.2,12.1,0.5c-7,9.6-10.6,19.7-10.6,30.1   c0,9.5,4.7,21.6,14.9,37.8c9.5,15.3,10.9,20.5,11.1,21.3c-0.1,5.9-2,11.2-6,16.2l-0.1,0.1c-3.9,5-8,7.3-13.4,7.4   c-0.9-0.1-4.9-0.7-19.2-3.6l-4.6-0.9l-2.8,1.1c0-0.5,0-0.9,0-1.4v-12.4l-12.2-6.8L649.1,321.7z M444.1,287   c6.2-5.2,10.9-8.6,14.5-10.8c-0.8,12.2-3,22.1-6.6,29.1c-4.3-1.7-7-3.1-8.6-4l-2.1-1.2l-2.4-0.5c-2.4-0.5-4.6-1-6.7-1.6   C434.8,295.2,438.7,291.6,444.1,287z M373.5,198.2c-2.7,0-5.2-0.3-7.4-0.8l-3.2-0.8l-3,0.5c-2-0.4-3.9-0.6-6-0.8l-0.1,0   c-22.5-1.8-26.8-3.1-27.2-3.2l-0.2-0.1c-4.1-1.4-6.9-3.8-7.3-11c0-0.3,0-0.6-0.1-0.9c0-0.2,0-0.4,0-0.6c0-2,0.4-2.6,0.4-2.6   c0,0,1.4-1.2,7.1-1.2c4.8,0,10.4,0.6,16.7,1.9c14.5,2.8,32.5,8.9,53.9,18C386.9,197.7,378.9,198.2,373.5,198.2z M288,237.9   c0.9,0,1.8,0,2.6,0c-1.6,20.3-2.4,35.6-2.4,45.6c0,8.2,0.4,16.3,1.3,23.8c-30.7-15.8-57.3-27.8-79.5-35.8   c26.1-12.4,46.7-23.8,61.4-33.9L288,237.9z"/>
	<path id="XMLID_13_" fill="#D3001A" d="M450.7,412l-26.2,6.4l-1.4-0.8C280.2,338.2,188.4,296,150.2,292   c-2.3,0.7-10.5,2.8-44.3,11.3c-7.2,1.4-13.7,2.1-19.7,2.1c-35,0-42.4-15.2-42.4-28c0-21.3,40.9-21.3,54.3-21.3   c10.4,0,24.3,0.9,41.1,2.7c50.8-23.9,63.7-30.2,65.6-31.2c34.1-18.7,41.3-30.8,41.3-37.5c0-3.8,0-13.8-24.8-13.8   c-19.9,0-34.6,3.6-43.5,10.8c-2.8,2.5-6.8,7.4-11.5,14.5c-5.3,7.9-10.3,13.4-15.3,16.9c-18.2,11.5-31.8,17-41.8,17   c-7.3,0-14.1-1.9-20.2-5.7c-6.8-4.2-10.2-9.6-10.2-16c0-12.9,11.2-24.2,34.3-34.6l23.3-10.6c-1.8-0.1-3.6-0.2-5.4-0.2   c-39.1,0-68,3.1-86,9.3c-5.6,2.1-11.4,2.4-17.2,0.7l-0.3-0.1c-8.5-3.1-9.8-9.1-9.8-12.4c0-6,4.3-10.9,12.9-14.7   c17.8-8.1,46.6-12,88.2-12c25.1,0,48.8,3.9,70.5,11.6c20-2.2,27.5-3.1,30.1-3.4c3-1.8,9.3-4.2,22.5-9.4c6.5-8,7.2-11.5,7.2-12.6   c0,0-0.2-4.2-17.6-8.5c-10.5-2.1-20.2-3.1-28.6-3.1c-9.7,0-24.5,0.2-43.9,0.6c-19.5,0.4-34.2,0.7-43.8,0.7   c-19.5,0-35.4-5.2-47.3-15.4c-12.1-10.4-18.3-23-18.3-37.5c0-6.8,3.9-14.4,11.9-23.4c7.7-8.6,15.6-14.3,23.6-17   c5-1.9,9.9-2.8,14.5-2.8c16.4,0,18.8,8.1,18.8,12.9c0,4.8-3.4,9.1-10.3,13.2c-12.4,7.4-19,14.7-19,21.1c0,8.9,3.2,20.7,31.3,20.7   c8.3,0,20.8-0.5,37.3-1.5c16.8-1,29.4-1.5,37.5-1.5c21.5,0,40.4,2.4,56.2,7.1c23.1,6.9,34.8,18,34.8,32.8c0,2.7-1.3,6.3-16.6,20.6   c-6.3,5.9-10.1,9.6-12.3,12l14.9,5c1-0.6,2.3-1.3,4-2.1c-2.3,3.8-3.1,7.9-3.1,11.7c0,9.4,5,20.3,15,32.9c0.1,0.1,0.2,0.2,0.3,0.3   c0.1-0.1,0.1-0.2,0.2-0.3c0.5,0.8,4.3,4.4,4.8,5.2c-1.1-0.1-5.2-3-5.9-3c-3.4-0.3-3.9-0.3-4.2-0.3c-0.4,0-0.7,0-1.1,0H282   c-0.4,0-0.5,0-0.6,0c-18.5,0-22.4,5.7-22.4,10.4c0,3.1,0.9,6.4,2.8,9.8l1.3,2.4h0.4l5,0.1c-18.1,12.9-46.5,28-84.4,44.9   c28.2,7.5,66.7,24.3,115.2,50c10.6,5.6,21.6,11.6,33.1,18.1c32.8,18.4,69.5,40.3,109.9,65.6L450.7,412z"/>
	<path id="XMLID_10_" fill="#02562C" d="M857,204.7c-6.5,0-15.8,0.5-28.5,1.6c-12.1,1-21.3,1.6-27.3,1.6c-3.6,0-9.2-0.8-16.6-2.3   c-8.4-1.8-14.8-2.6-19.6-2.6c-3,0-6.4,0.7-10.4,2c-3.4-0.2-6.9-0.3-10.7-0.3c-1.4,0-6.3,0.1-32.3,1.1c-12.5,0.6-22.9,0.4-30.9-0.5   c-2-0.2-6.5-1-17.2-3.2c-7.8-1.8-14.2-2.6-19.6-2.6c-7.9,0-19.1,0.9-34.3,2.6c-14.5,1.7-25.5,2.5-32.8,2.5c-2.4,0-7.4-0.5-17.3-2.7   c-9-2-15.9-3-21.1-3c-14.5,0-24.8,1.7-30.9,5.1c-0.1,0-0.1,0-0.2,0c-5.7,1.4-9,1.8-10.7,1.8c-3.2,0-8,0.2-14.6,0.7   c-6.1,0.5-10.8,0.7-14,0.7c-3.7,0-9.5-0.6-17.2-1.7c-8.5-1.2-14.8-1.8-19.4-1.8c-6.7,0-16.4,0.7-29.7,2   c-12.6,1.3-22.2,1.9-28.5,1.9c-3.4,0-6.6-0.3-9.5-1l-1.3-0.3l-1.4,0.2c-0.5,0.1-0.9,0.2-1.3,0.2c-2-0.4-4.2-0.8-6.8-1   c-21.6-1.8-27.8-3.1-29.6-3.8c-8.7-2.9-13.1-9.3-13.6-19.4c0-0.7-0.1-1.3-0.1-1.9c0-9.2,5-13.1,16.8-13.1c5.5,0,11.6,0.7,18.5,2   c21,4.1,48.6,14.5,82.5,30.9l5.1,2.5l7.2-12.5l-2.1-1.9c-15.3-13.3-33.6-24-54.3-32c-11.3-4.2-22.5-7.4-33.8-9.4   c-5-0.9-10-1.6-15-2.1c-5.7-0.6-11.3-0.9-16.9-0.9c-23.9,0-35.6,6-41,13.5c-0.4,0.5-0.7,1-1,1.5c-2.3,3.8-3.1,7.9-3.1,11.7   c0,9.4,5,20.3,15,32.9c0.1,0.1,0.2,0.2,0.3,0.3c1.3,1.2,5,4.1,5.6,4.9c-1.3-0.1-6.4-3-7.3-3c-2.6-0.2-3.9-0.2-4.5-0.3H282   c-0.4,0-0.5,0-0.6,0c-18.5,0-22.4,5.7-22.4,10.4c0,3.1,0.9,6.4,2.8,9.8l1.3,2.4h0.4l5,0.1l19.6,0.3c6.1,0.1,10.1,0.2,12.7,0.2   c-2.1,25-3.2,43.4-3.2,54.7c0,16.1,1.7,30.4,4.2,40.7c13,6.5,27.8,15.5,41.3,22.8c0.4-1.7-0.3-9.5-0.3-11.8c0-3.9-0.5-8.9-1.6-14.7   l-0.2-0.9l-0.7-0.8c-3.9-4.3-8.5-14.5-8.5-38.3v-50.3c1.8-1,5.8-2.2,14.2-2.2c0.1,0,0.8,0,3.2,0.3c11.1,2.4,28.7,3.5,54.3,3.5   c3.5,0,8.1-0.9,14-2.9c6-2,8.8-2.3,9.9-2.3c3.1,0,6.6,0.9,10.6,2.8c4.3,2,4.8,3.8,4.8,5c0,3.2-3.3,9.2-18.8,19.5   c-13.1,8.2-26.1,16.5-39.3,24.9c-15,10.9-22.3,20.6-22.3,29.7c0,7.9,7.6,14.1,22.7,18.5l0.4,0.1c13.1,2.8,26.1,5.6,38.8,8.3   c17.1,4.2,22.8,8.7,24.5,11.7l0.3,0.7l1,0.6c0.3,0.3,2.1,2.1,6.3,11.4c2.1,5,7.6,11,21.7,11c13,0,20.4-5,20.4-13.6   c0-8.4-2.1-14.4-6.5-18.5c0-5.2,0.2-12.7,0.5-22.2c0.4-10.7,0.5-18.5,0.5-23.7c0-24.9-2.8-46.1-8.3-63.1c22.1-0.7,36.2-2,45.1-3.9   c6.9,2.1,10.1,6.6,10.1,14.2c0,7-1.7,17.8-4.9,31.9c-3.4,14.6-5.1,25.9-5.1,33.6c0,23.5,15.5,28.5,28.5,28.5   c4.6,0,11.2-2.3,27.8-19.1c7.2-7.3,11.9-11.5,14.8-13.9c1.3,5.2,3.5,15.3,7,35.4c4.4,25.5,11,36.4,22.1,36.4   c14.4,0,21.7-9.9,21.7-29.5v-6.9l-12-6.8l-0.2-7.7c-0.3-5,1.1-12.7,4.1-22.6c3.2-10.7,4.8-18.7,4.8-24.3c0-10.3-3.9-18.5-11.5-24.3   l-1.5-1.1h-4.8c-9.7,0-21.1,7.2-36,22.7c-13.3,13.9-22.5,18.3-28.3,19.3l-2.6-3c0.6-6.4,2.3-17.3,5.1-32.6   c3.4-20.6,5.5-26,6.3-27.5c3.1-1.5,7.7-2.2,13.4-2.2c3.2,0,8.2,0.3,14.9,1c7.2,0.7,12.5,1.1,16.3,1.1c6.8,0,17.1-0.5,30.6-1.6   c13.1-1,23-1.6,29.3-1.6c16.3,0,26.4,2,28.4,5.5c-11.6,11.1-17.5,22.7-17.5,34.4c0,7.6,4.4,18.4,13.5,32.9   c10.8,17.4,12.5,23.8,12.5,26c0,8.1-2.7,15.6-8,22.3c-5.7,7.4-12.7,11-21.2,11c-0.6,0-4-0.4-20.7-3.8l-1.9-0.4l-1.8,0.7   c-6.5,2.5-9.8,5.7-9.8,9.5c0,8.2,10.5,12.4,31.3,12.4c20,0,37-5,50.2-14.8c13.3-9.8,20.1-23.1,20.1-39.3c0-6.8-4.9-17.1-14.9-31.3   c-11.3-16.1-13.7-24-13.7-27.9c0-23.8,6.8-35.9,20.1-35.9c1.9,0,4.5,0.1,7.6,0.3c1,0.6,2.1,1.1,3.3,1.7l1.6,0.8l14.1-1.3   c1.6,0.1,3.1,0.1,4.3,0.1c1.1,0,2.1-0.1,3.1-0.2c8.7,2.4,8.8,5.3,8.8,6.4c0,5.7-0.8,14.6-2.4,26.3c-1.6,11.9-2.4,21.1-2.4,27.3   v72.4l0.4,0.8c4.2,7.2,11.2,8.7,16.3,8.7c18.2,0,18.2-22.2,18.2-29.5c0-4.3-0.6-10.6-1.9-19.4c-1.2-8.4-1.8-14.7-1.8-18.9   c0-8.3,1.5-21,4.3-37.7c3.8-23.9,7.2-29.3,8.3-30.5c1.5-0.3,6.2-1.2,20.9-3.4c10.4-1.3,22.4-3.7,22.4-10.5   C871.7,206.6,862.5,204.7,857,204.7z M455.7,316.7c-7.4-2.6-13.1-5-17-7.2l-0.8-0.5l-0.9-0.2c-8.3-1.8-14.9-3.7-19.7-5.8   c1.5-4.1,6.6-11.1,20.9-23.1c17.8-15,26.1-17.2,29.5-17.3c0,0,0.7,0.7,0.7,3.3C468.3,289.4,464.1,306.5,455.7,316.7z"/>
	<g id="XMLID_1_">
		<path id="XMLID_2_" fill="#D3001A" d="M856.9,238.2c1.4-0.1,3-0.4,4.5-1c3.1-1.2,5.7-3.2,8.1-5.4c1.2-1.1,1.2-1.4-0.1-2.4    c-5.8-4.9-10.8-10.5-14.4-17.2c-2.4-4.5-4.2-9.2-5-14.2c-0.2-1.1,0-2.1,0.6-3.1c2-3,1.3-6.5-1.8-8.4c-1.1-0.7-1.9-1.6-2.5-2.8    c-0.7-1.5-1.6-2.9-2.5-4.3c-0.7-1.1-0.5-1.6,0.7-1.9c5-1.5,10-3,15-4.6c0.9-0.3,1.8-0.6,2.7-0.9c1.2-0.4,2.1-1.2,2-2.6    c0-1.3-0.9-2-2.1-2.4c-4.3-1.3-8.6-2.7-12.9-4c-15.9-4.9-31.8-9.7-47.7-14.6c-1.8-0.5-3.4-0.6-5.2,0    c-19.8,6.1-39.6,12.2-59.5,18.2c-2.5,0.8-3.5,1.6-3.4,3.1c0.1,2,1.8,2.3,3.3,2.8c19.3,5.9,38.7,11.8,57.9,17.8    c2.8,0.9,5.4,0.9,8.2,0c7.6-2.5,15.3-4.7,22.9-7.1c0.6-0.2,1.7-0.2,1.7-1c0.1-0.8-1-0.9-1.6-1.2c-8.5-4.1-17.5-6.5-26.8-8.1    c-0.7-0.1-1.3-0.2-1.9-0.4c-1.6-0.5-2.5-2-2.2-3.6c0.2-1.5,1.5-2.5,3.2-2.6c0.4,0,0.9,0,1.3,0.1c9.6,1.5,18.9,3.9,27.7,8    c3.9,1.8,7.4,4,10.4,7.2c0.9,0.9,1.7,2,2.3,3c0.9,1.4,1.3,2.7,0.3,4.3c-1.3,2.2-0.8,4.6,0.9,6.5c0.9,1,1.2,2,1.2,3.2    c-0.1,3-0.4,6-0.3,9c0.3,6.5,0.8,12.9,2.9,19.1c0.9,2.6,2.1,5.1,3.8,7.3C850.9,236.6,853.9,238.2,856.9,238.2z"/>
	</g>
	<g id="XMLID_16_">
		<path id="XMLID_6_" fill="#FFF200" d="M89.2,453.8V504l-3.7-2.9c-0.8-3.4-2.1-6.5-3.7-9.4c-1.7-2.9-3.5-5.7-5.6-8.3    c-1.4,1.9-3,3.5-4.9,4.6c-1.9,1.2-4.2,1.8-6.7,1.8c-2.6,0-4.9-0.6-7.2-1.7c-2.2-1.1-4.3-2.7-6.2-4.6c-1.9-1.9-3.6-4.1-5.1-6.6    c-1.5-2.5-2.8-5.1-4-7.8c-1.1-2.7-2.1-5.4-2.9-8c-0.8-2.7-1.4-5.1-1.8-7.4l5.1,2.1c1,2.8,2,5.6,3.2,8.4c1.2,2.8,2.6,5.4,4.2,7.7    c1.6,2.3,3.5,4.1,5.7,5.6c2.2,1.4,4.8,2.2,7.9,2.2c1.6,0,3-0.2,4.1-0.7c1.1-0.5,1.9-1,2.6-1.8c0.6-0.7,1.1-1.5,1.3-2.4    c0.2-0.9,0.4-1.8,0.4-2.8c-0.1-1.9-0.5-3.5-1.2-4.8c-0.8-1.3-1.5-2.1-2.2-2.4c-0.6,1.5-1.5,2.6-2.7,3.5c-1.2,0.9-2.7,1.3-4.5,1.3    c-1,0-2.1-0.2-3.1-0.5c-1-0.4-2-0.9-2.8-1.5c-0.8-0.7-1.5-1.5-2-2.4c-0.5-1-0.8-2-0.8-3.2c0-1.4,0.3-2.6,1-3.6    c0.7-1,1.5-1.8,2.5-2.4c1-0.6,2.1-1,3.3-1.3c1.2-0.2,2.3-0.4,3.3-0.4c2.5,0,4.8,0.6,7,1.8s4.1,2.8,5.6,4.8s2.7,4.2,3.5,6.6    c0.8,2.4,1,4.9,0.7,7.3l2.8,5.5v-26.4H37.3l-6.8-6.8h63.6l7,6.8H89.2z"/>
		<path id="XMLID_4_" fill="#FFF200" d="M108.5,453.8v50.4c-0.3,0-0.9-0.3-1.6-0.9c-0.8-0.6-1.5-1.2-2.3-1.9    c-0.9-0.8-1.9-1.7-2.9-2.8v-36.4c0-2.8-0.5-5-1.4-6.5c-1-1.5-2.7-2.1-5.3-1.8l-5.8-7.1c1,0.1,1.8,0.1,2.3,0.1c0.6,0,1,0,1.4,0    c0.4,0,0.7,0,0.9,0c0.2,0,0.5,0,0.8,0c2,0,3.6,0.4,4.9,1.1c1.2,0.7,2.3,1.9,3.3,3.4c-0.1-0.6-0.2-1.2-0.3-2    c-0.1-0.7-0.2-1.5-0.3-2.5c-0.1-1-0.2-2.1-0.4-3.4c-0.2-1.3-0.3-2.8-0.5-4.6l4.2,3.3c0.1,0.9,0.2,1.6,0.3,1.9    c0.1,0.4,0.2,0.7,0.4,0.9c0.2,0.3,0.4,0.6,0.7,0.9l1,1h7.2l6.8,6.8H108.5z"/>
		<path id="XMLID_3_" fill="#FFF200" d="M115.9,453.8l-6.8-6.8h62.6l7.3,6.8H115.9z M149.8,496.7c-3.1,0-5.9-0.7-8.6-2.1    c-2.6-1.4-5-3.3-7.1-5.6c-2.1-2.3-4.1-5-5.9-7.9c-1.8-3-3.3-6.1-4.7-9.2c-1.4-3.2-2.6-6.3-3.6-9.5c-1-3.1-1.9-6-2.7-8.6l5.1,2.1    c0.9,2.1,1.8,4.3,2.9,6.7c1,2.3,2.2,4.6,3.4,6.9c1.2,2.3,2.6,4.5,4.1,6.5c1.5,2.1,3.1,3.9,4.9,5.5c1.8,1.6,3.7,2.9,5.8,3.8    c2.1,0.9,4.4,1.4,6.8,1.4c1.4,0,2.8-0.3,4.2-0.9c1.4-0.6,2.8-1.4,4-2.4c1.2-1,2.2-2.2,3-3.5c0.8-1.3,1.3-2.7,1.4-4.2    c0.1-1.4-0.1-2.7-0.6-4.1c-0.5-1.4-1.2-2.6-2.1-3.6s-1.9-1.9-3.1-2.5c-1.1-0.7-2.3-1-3.3-1c-0.3,0-0.5,0-0.7,0    c-0.2,0-0.5,0.1-0.7,0.1c0.4,0.8,0.7,1.5,0.9,2.3c0.2,0.8,0.2,1.6,0.2,2.4c0,2.8-0.8,4.8-2.4,6c-1.6,1.3-3.6,1.9-6.1,1.9    c-1.5,0-2.9-0.3-4-0.8c-1.1-0.5-2.1-1.3-2.9-2.2c-0.8-0.9-1.4-2-1.8-3.2c-0.4-1.2-0.6-2.5-0.6-4c0-1.7,0.4-3.2,1.1-4.6    c0.7-1.4,1.7-2.5,2.9-3.5c1.2-1,2.5-1.7,4-2.2c1.5-0.5,3-0.8,4.5-0.8c2.8,0,5.6,0.6,8.2,1.7c2.7,1.1,5,2.7,6.9,4.7    c2,2,3.5,4.5,4.5,7.3c1.1,2.9,1.5,6,1.2,9.4c-0.2,2.6-0.9,4.9-1.9,7c-1.1,2.1-2.4,4-4.2,5.6c-1.7,1.6-3.7,2.8-5.9,3.7    C154.7,496.3,152.3,496.7,149.8,496.7z"/>
		<path id="XMLID_68_" fill="#FFF200" d="M180.7,453.8v57.6c-0.3,0-0.7-0.1-1.1-0.4c-0.5-0.2-1-0.5-1.5-0.8    c-0.6-0.3-1.2-0.7-1.8-1.2c-0.2-1.1-0.5-2.3-0.9-3.5c-0.5-1.2-1-2.3-1.7-3.3c-0.7-1-1.4-1.8-2.1-2.4c-0.8-0.7-1.5-1-2.4-1    c-0.3,0-0.6,0.2-0.7,0.6c-0.1,0.8-0.3,1.5-0.6,2.2c-0.4,0.7-0.8,1.4-1.4,2s-1.2,1-2,1.4c-0.7,0.4-1.5,0.5-2.3,0.5    c-2.1,0-3.9-0.6-5.2-1.9c-1.4-1.3-2-3-2-5.2c0-1.1,0.3-2.1,0.8-3c0.5-0.8,1.2-1.5,2.1-2.1c0.8-0.5,1.8-1,2.7-1.2    c1-0.3,1.9-0.4,2.8-0.4c2.4,0,4.4,0.3,5.9,0.9c1.5,0.6,3.1,1.6,4.6,2.8v-41.7h-1.5l-6.9-6.8h20.2l6.9,6.8H180.7z"/>
		<path id="XMLID_70_" fill="#FFF200" d="M195.8,443.6c0,0.1,0.1,0.3,0.2,0.6c0.2,0.3,0.3,0.7,0.5,1.1c0.2,0.3,0.3,0.6,0.4,0.9    c0.1,0.3,0.2,0.6,0.3,0.8h8.7l6.8,6.8h-13.5v50c-0.5-0.5-1.1-1.1-1.6-1.5c-0.4-0.4-0.9-0.9-1.4-1.3c-0.5-0.4-0.9-0.8-1.1-1.1    c-0.3-0.3-0.6-0.6-0.9-0.9c-0.3-0.3-0.5-0.6-0.8-0.8c-0.1-0.1-0.2-0.2-0.3-0.3c-0.1-0.1-0.2-0.2-0.2-0.3c-0.2-0.2-0.4-0.4-0.4-0.5    c-0.2-0.4-0.2-0.7-0.1-1v-42.4H186l-6.8-6.8h12.3c-0.8-0.8-1.6-1.6-2.3-2.5c-0.7-0.9-1.1-2-1.1-3.2c0-2.2,0.7-4.3,2-6.3    c1.3-2,2.9-3.8,4.8-5.3c1.9-1.5,4-2.7,6.3-3.6c2.3-0.9,4.3-1.3,6.2-1.3c2.9,0,5.7,0.4,8.4,1.1c2.7,0.8,5.3,1.8,7.7,3.1    c2.4,1.3,4.8,2.8,7,4.6c2.2,1.8,4.3,3.6,6.2,5.6l2.3,6.7c-4.2-3.5-8.1-6.2-11.6-8.1c-3.5-2-6.7-3.3-9.5-4.1    c-2.8-0.8-5.3-1.1-7.5-1c-2.2,0.1-4.1,0.6-5.7,1.3s-3,1.6-4.1,2.6c-1.1,1.1-2,2.1-2.7,3.1c-0.7,1-1.2,1.9-1.5,2.6    C196,443.1,195.8,443.5,195.8,443.6z"/>
		<path id="XMLID_72_" fill="#FFF200" d="M224.7,470.4c0.1,0.1,0.1,0.2,0.1,0.2c0,0,0.1,0.1,0.1,0.2c0.2,0.3,0.4,0.6,0.6,0.9    c0.2,0.3,0.3,0.6,0.4,0.9c0.7,1.3,1.1,2.7,1.1,4.3c0,2.3-0.8,4.1-2.3,5.2c-1.5,1.1-3.3,1.7-5.3,1.7c-3.3,0-5.8-0.9-7.5-2.6    c-1.8-1.8-2.6-4.3-2.6-7.5c0-1.8,0.3-3.4,1-4.8c0.7-1.4,1.6-2.7,2.8-3.7c1.2-1,2.5-1.8,4-2.4c1.5-0.6,3.1-0.9,4.8-0.9    c2,0,3.7,0.4,5.4,1.1s3.1,1.6,4.4,2.8c1.3,1.2,2.5,2.5,3.6,4c1.1,1.5,2.1,3,2.9,4.5v-20.4h-32l-6.8-6.8h50.7l7.1,6.8h-12.1v52.1    l-3.9-5.1c0.1-0.4,0.2-0.8,0.2-1c0-0.2,0-0.4,0-0.7c0-1.5-0.2-3.3-0.5-5.2c-0.4-2-0.9-4-1.6-6.1c-0.7-2.1-1.5-4.2-2.5-6.2    c-1-2-2.1-3.9-3.3-5.5c-1.2-1.6-2.6-3-4.1-4C227.9,471.1,226.4,470.5,224.7,470.4z"/>
		<path id="XMLID_74_" fill="#FFF200" d="M251,453.8l-7-6.8h58.6l7.2,6.8H251z M280.4,466.4c0.7-0.4,1.5-1,2.3-1.8    c0.8-0.8,1.6-1.6,2.3-2.4s1.4-1.7,2-2.6c0.6-0.9,1-1.6,1.3-2.3l1.1-0.7c2.2,1.2,4.1,2.6,5.7,4.1c1.5,1.5,2.8,3.1,3.7,4.7    c1,1.6,1.6,3.1,2,4.6c0.4,1.5,0.6,2.7,0.6,3.7c0,2.9-0.5,5.6-1.5,8.2c-1,2.6-2.4,4.9-4.2,6.9c-1.8,2-3.9,3.6-6.4,4.8    c-2.5,1.2-5.3,1.8-8.3,1.8c-2.4,0-4.6-0.4-6.6-1.1c-2-0.7-3.9-1.7-5.5-2.9c-1.7-1.2-3.2-2.7-4.6-4.4c-1.4-1.7-2.6-3.5-3.7-5.4    c-1.1-2-2.1-4-3-6.1c-0.9-2.1-1.8-4.2-2.5-6.2c-0.8-2.1-1.5-4.2-2.1-6.3c-0.7-2.1-1.4-4.5-2.1-7.2l5.3,1.7    c0.9,3.3,2.1,6.5,3.6,9.8c1.5,3.3,3.3,6.3,5.4,9s4.6,4.9,7.3,6.6c2.8,1.7,5.9,2.5,9.5,2.5c1.5,0,2.9-0.3,4.4-0.9    c1.4-0.6,2.7-1.5,3.9-2.5c1.2-1.1,2.1-2.3,2.9-3.6c0.7-1.4,1.1-2.8,1.1-4.2c0-0.3,0-0.7,0-1.3c0-0.6-0.1-1.2-0.2-1.8    c-0.1-0.6-0.2-1.2-0.4-1.8c-0.2-0.5-0.4-0.9-0.8-1.1c-0.4,0.4-0.8,0.9-1.1,1.3c-0.3,0.4-0.7,0.9-1.1,1.3c-0.8,0.9-1.7,1.7-2.7,2.3    c-1.1,0.6-2.2,1.1-3.4,1.5c-1.2,0.4-2.4,0.7-3.6,0.9c-1.2,0.2-2.4,0.3-3.4,0.3c-1.6,0-3.1-0.2-4.5-0.7c-1.4-0.5-2.7-1.2-3.8-2.2    c-1.1-1-2-2.1-2.6-3.4c-0.7-1.3-1-2.8-1-4.5c0-2.6,0.8-4.7,2.3-6.2c1.5-1.5,3.6-2.3,6.2-2.3c2,0,3.7,0.6,5.1,1.8    c1.5,1.2,2.2,2.9,2.2,5.1C281.3,464.3,281,465.4,280.4,466.4z"/>
		<path id="XMLID_77_" fill="#FFF200" d="M290.7,445.7h-15.1l30.5-22.5l6.8,0.9L290.7,445.7z"/>
		<path id="XMLID_79_" fill="#FFF200" d="M340.6,453.8v49.3c-1-0.6-1.7-1-2-1.2c-0.3-0.2-0.6-0.4-0.8-0.6c-0.3-0.2-0.8-0.8-1.5-1.7    c-0.5-0.8-1-1.7-1.5-2.6c-0.5-1-1-1.9-1.6-3c-0.6-1-1.2-2.1-1.9-3.1c-0.7-1.1-1.5-2.1-2.3-3.1c-1.7-2-3.9-3.7-6.6-5.2    c-2.6-1.5-6.1-2.4-10.4-2.6l-7.1-9.8c4.7-3.3,9.4-6.2,14.1-8.8c4.7-2.6,9.6-4.6,14.7-6.2v-1.4h-28.7l-7-6.8h47.4l6.9,6.8H340.6z     M321.4,498.5c-0.8,0-1.6-0.2-2.4-0.5c-0.8-0.3-1.4-0.8-2-1.3c-0.6-0.6-1-1.2-1.4-2c-0.4-0.8-0.5-1.5-0.5-2.4c0-1.6,0.6-2.9,1.7-4    c1.1-1.1,2.4-1.7,4-1.7c1.6,0,3.1,0.6,4.3,1.8c1.2,1.2,1.9,2.6,1.9,4.2c0,1.5-0.5,2.8-1.6,4C324.3,497.9,323,498.5,321.4,498.5z     M333.8,464.5c-2.9,1.1-5.6,2.3-8.1,3.6c-2.5,1.3-5,2.8-7.5,4.6c3.2,1.5,6.1,3.3,8.8,5.5c2.6,2.2,4.9,4.7,6.8,7.7V464.5z"/>
		<path id="XMLID_83_" fill="#FFF200" d="M391.1,453.8v49.1c-0.3,0-0.9-0.3-1.7-0.8c-0.8-0.5-1.6-1.2-2.4-1.9c-1-0.8-2-1.7-3.2-2.7    l0.4-30.4c0-0.8-0.3-1.7-0.9-2.9c-0.6-1.2-1.3-2.3-2.1-3.4c-0.8-1.1-1.7-2.1-2.6-2.9c-0.9-0.8-1.7-1.2-2.4-1.2    c-0.8,0-1.5,0.2-2.3,0.7c-0.8,0.5-1.3,0.9-1.6,1.4c1.1,0.5,2.2,1.3,3.3,2.2c1.1,1,1.9,2,2.6,3.2c0.7,1.2,1.2,2.4,1.4,3.7    c0.2,1.3,0.2,2.4-0.2,3.5c-0.4,1.1-1.1,2.1-2.3,2.9c-1.1,0.8-2.8,1.4-4.9,1.7c-1.6,0.3-3,0-4.2-0.9c-1.2-0.9-2.2-1.9-3-3.1    c-0.4,0.7-0.9,1.3-1.5,1.9c-0.6,0.6-1.2,1.2-1.9,1.6c-0.7,0.5-1.4,0.8-2.2,1c-0.8,0.2-1.5,0.3-2.4,0.2c-3-0.5-5.1-1.7-6.2-3.5    c-1.1-1.8-1.5-3.7-1.1-5.7c0.4-2.1,1.3-4,2.9-5.9c1.5-1.8,3.5-3.1,5.7-3.9c-0.9-1.7-1.9-2.8-3-3.3c-1.1-0.5-2.5-0.7-4.3-0.8    c-0.6-0.1-1.2-0.1-1.8,0c-0.6,0-1.2,0-1.9,0c-0.3,0.1-0.6,0.1-0.9-0.1c-0.1-0.1-0.3-0.2-0.5-0.4c-0.1-0.1-0.3-0.2-0.6-0.5    c-0.3-0.3-0.5-0.5-0.8-0.8c-0.3-0.3-0.5-0.6-0.8-0.9c-0.8-0.8-1.4-1.5-1.9-2.2c-0.5-0.7-0.8-1-0.8-1.1h2c0,0.1,0.4,0,1.3-0.1    c0.9-0.1,1.9-0.2,3-0.3l4.4-0.5c2.3,0.1,4.5,0.8,6.6,2.2c2,1.4,3.5,3.2,4.5,5.3c1.2-2,2.9-3.7,4.8-5.3c2-1.5,4.2-2.3,6.6-2.3    c0.8,0,1.6,0.4,2.6,1.1c1,0.7,1.9,1.6,2.9,2.7c1,1.1,1.9,2.3,2.9,3.6c1,1.3,1.8,2.6,2.6,3.8c-0.2-1.5-0.3-2.9-0.4-4.4    c-0.1-1.5-0.2-3-0.3-4.6c-0.1-1.6-0.2-3.3-0.2-5.1s-0.1-3.8-0.2-5.9c1.4,1.2,2.5,2.1,3.1,2.7c0.7,0.6,1.2,1.2,1.7,1.8    c0.4,0.5,0.7,1.1,0.8,1.8c0.1,0.3,0.2,0.5,0.2,0.8c0,0.2,0.1,0.5,0.2,0.7c0.1,0.3,0.2,0.5,0.4,0.7c0.2,0.2,0.6,0.3,1.4,0.3h4.5    l8.3,6.8H391.1z"/>
		<path id="XMLID_85_" fill="#FFF200" d="M409.7,453.8v49.1c-0.3,0-0.8-0.3-1.5-0.8c-0.8-0.5-1.5-1.1-2.3-1.8    c-0.9-0.8-1.9-1.7-3-2.7v-43.8h-5.4l-7.3-6.8h13c-0.8-3.2-2-5.8-3.5-8c-1.5-2.2-3.4-4-5.7-5.4c-2.2-1.4-4.7-2.4-7.5-3.1    c-2.8-0.7-5.8-1-9.1-1c-0.5,0-1.5,0-2.9,0.1c-1.4,0.1-2.7,0.2-4.1,0.4c-1.4,0.2-2.6,0.6-3.7,1.1s-1.6,1.1-1.6,2    c0,0.5,0.3,0.9,0.9,1c0.6,0.1,1.3,0.2,2.2,0.3c1.2,0.1,2.5,0.2,4,0.2c1.5,0.1,3,0.1,4.6,0.2c1.6,0.1,3.2,0.3,4.8,0.7    c1.6,0.4,3.1,0.9,4.4,1.7c1.3,0.8,2.4,1.8,3.2,3.2c0.8,1.4,1.3,3.1,1.3,5.3c0,0.5,0,1.1-0.1,1.7s-0.3,1.3-0.5,2.2H381    c1.6-1.2,2.7-2.1,3.3-2.7c0.6-0.5,0.9-1.1,0.9-1.6c0-0.5-0.2-0.9-0.6-1.2c-0.4-0.3-1.2-0.6-2.4-0.9c-1.1-0.3-2.4-0.4-3.9-0.5    s-3-0.2-4.5-0.3c-1.5-0.2-3.1-0.4-4.6-0.7c-1.6-0.3-3-0.8-4.3-1.5c-1.3-0.7-2.4-1.6-3.2-2.9c-0.8-1.2-1.2-2.8-1.2-4.8    c0-1.7,0.7-3.2,2.2-4.4c1.5-1.3,3.2-2.3,5.2-3.2c2-0.8,4.1-1.5,6.2-1.9c2.1-0.4,3.8-0.6,5.1-0.6c2.1,0,4.2,0.2,6.4,0.7    c2.1,0.5,4.1,1.1,6,1.7c2.6,0.8,4.8,2,6.7,3.5c1.9,1.5,3.6,3.3,5,5.3c1.4,2,2.6,4.1,3.6,6.4c1,2.3,1.8,4.6,2.4,6.9h8.3l6.8,6.8    H409.7z"/>
		<path id="XMLID_87_" fill="#FFF200" d="M461.2,453.8v50.5c-1-1-2-1.9-2.9-2.8c-0.8-0.8-1.5-1.5-2.2-2.2c-0.7-0.7-1.3-1.2-1.6-1.6    v-27c0-0.6-0.2-1.2-0.5-1.8c-0.3-0.6-0.7-1.1-1.2-1.6s-1-0.9-1.7-1.2c-0.6-0.3-1.2-0.5-1.8-0.5c-0.9,0-1.6,0.3-2.2,0.9    c-0.5,0.6-0.8,1.4-0.8,2.5c0,0.3,0,0.5,0,0.7c0,0.2,0.1,0.5,0.1,0.7c0.1,0.3,0.1,0.6,0.2,0.9c0.1,0.3,0.1,0.8,0.2,1.5l-3.9,1.5    c-0.3-1.4-0.7-2.6-1.3-3.6c-0.6-1.1-1.4-2-2.3-2.7c-0.9-0.7-1.9-1.3-2.9-1.8c-1.1-0.4-2.1-0.7-3.2-0.8c-2.3-0.3-4.3,0.1-5.8,1.1    c-1.5,1-2.5,2.5-2.8,4.4c-0.3,2.2,0.1,3.8,1.2,4.7c-0.2-0.5-0.2-1.1-0.2-1.8c0.1-1.8,0.7-3.3,2-4.5c1.2-1.1,2.8-1.7,4.6-1.7    c1.2,0,2.2,0.3,3.1,0.9c0.9,0.6,1.6,1.3,2.2,2.2s1,1.9,1.3,2.9c0.3,1.1,0.4,2,0.4,2.9c0,1.2-0.4,2.2-1.1,3.1    c-0.7,0.9-1.6,1.6-2.8,2.2s-2.4,1-3.7,1.2c-1.4,0.2-2.7,0.2-4,0.1c-1.4-0.2-2.8-0.6-4.1-1.2c-1.3-0.7-2.4-1.6-3.4-2.8    c-1-1.2-1.7-2.7-2.2-4.4s-0.7-3.9-0.5-6.3c0.1-1.7,0.5-3.3,1.3-4.8c0.7-1.5,1.7-2.8,2.9-3.9c1.2-1.1,2.6-2,4.2-2.6    c1.6-0.7,3.3-1,5.2-1c2.2,0,4.1,0.4,5.7,1.3s2.9,2.1,4.2,3.5c0.6-1.2,1.5-2.3,2.8-3.2c1.2-0.9,2.4-1.4,3.5-1.4    c1.7,0,3.1,0.5,4.4,1.5c1.2,1,2.3,2.1,3.2,3.4v-7.7h-36.6c-0.3-0.3-0.6-0.6-0.9-0.9c-0.3-0.3-0.6-0.6-0.9-0.9    c-0.4-0.3-0.7-0.6-0.9-0.9c-0.3-0.3-0.6-0.6-0.9-0.9c-0.3-0.3-0.6-0.5-0.8-0.8c-0.2-0.1-0.4-0.3-0.6-0.5c-0.1-0.1-0.1-0.1-0.2-0.1    c0.1,0,0.1,0,0.1,0c0,0,0.1,0,0.1,0c0-0.3,0.1-0.6,0.3-0.9c0.2-0.2,0.6-0.3,1.1,0l-1-1.1h51.9c0.2-0.1,0.5-0.1,0.9,0.1    c0.1,0.1,0.3,0.2,0.5,0.4c0.1,0.1,0.2,0.1,0.3,0.2c0.1,0.1,0.2,0.2,0.3,0.3c0.3,0.3,0.6,0.5,0.9,0.8c0.3,0.3,0.6,0.6,0.9,0.9    c0.3,0.3,0.7,0.7,1.2,1.2c0.5,0.5,1,0.9,1.4,1.3c0.5,0.5,1.1,1.1,1.7,1.6H461.2z"/>
		<path id="XMLID_89_" fill="#FFF200" d="M515.7,453.8l1-1.3c0.1,0.3,0.2,0.6,0.3,0.7c0.1,0.2,0.2,0.3,0.3,0.5    c0.2,0.2,0.4,0.4,0.5,0.6c0.1,0.1,0.2,0.2,0.2,0.2c0,0.1,0.1,0.1,0.2,0.2c1.9,0.3,3.7,0.8,5.5,1.7c1.7,0.9,3.3,2,4.6,3.3    c1.3,1.4,2.3,2.9,3.1,4.7c0.8,1.8,1.2,3.7,1.2,5.7c0,2.3-0.5,4.2-1.4,5.7c-0.9,1.5-2.1,2.8-3.5,3.8c-0.8,0.5-1.5,1-2.3,1.4    c-0.8,0.4-1.5,0.8-2.3,1.2c-0.5,0.3-1,0.5-1.5,0.7c-0.5,0.2-1,0.5-1.5,0.7c2.3,1.3,4.1,2.2,5.6,3c1.4,0.7,2.8,1.5,4,2.2    c0.7,0.4,1.4,0.9,2.2,1.4c0.7,0.5,1.5,1.1,2.3,1.8c0.8,0.7,1.7,1.5,2.6,2.4c1,0.9,2,2,3.3,3.3l3.2,11.2c-2.9-3.5-6.1-6.5-9.4-9.1    c-3.3-2.6-6.7-4.8-10.2-6.6c-3.5-1.8-7.1-3.4-10.7-4.5c-3.6-1.2-7.2-2.1-10.7-2.7l-6.8-16.6c3.4,2.3,6.4,3.9,9,4.8    c2.6,0.9,5.1,1.3,7.6,1.3c1,0,2.4-0.1,4-0.4c1.6-0.3,3.2-0.7,4.7-1.3c1.5-0.6,2.8-1.3,3.9-2.3c1.1-1,1.6-2.1,1.6-3.4    c0-1.9-0.8-3.4-2.3-4.4c-1.5-1.1-3.3-1.6-5.3-1.6c-0.5,0-0.8,0-1.1,0.1c-0.2,1.1-0.6,2.3-1.2,3.3c-0.7,1.1-1.4,2.1-2.4,3    c-0.9,0.9-2,1.6-3.1,2.2c-1.1,0.5-2.3,0.8-3.4,0.8c-1.8,0-3.4-0.5-4.7-1.6c-1.4-1.1-2-2.7-2-4.7c0-1.7,0.4-3.1,1.3-4.2    c0.8-1.1,1.9-2.1,3.1-2.9c0.6-0.4,1.2-0.8,1.8-1.1c0.6-0.3,1.2-0.6,1.8-0.9c1.1-0.4,2.2-0.8,3.2-1.2c-0.2,0.1-0.4,0-0.7-0.2    s-0.7-0.3-1.1-0.5c-0.4-0.1-0.9-0.2-1.3-0.2c-0.4-0.1-0.8-0.1-1-0.2h-13.1l-7.1-6.8h50.1l6.7,6.8H515.7z"/>
		<path id="XMLID_91_" fill="#FFF200" d="M556.4,495.5c-0.4-0.7-0.8-1.4-1.1-2.2c-0.3-0.8-0.5-1.5-0.5-2.2c0-0.9,0.2-1.7,0.6-2.5    c0.4-0.8,0.9-1.5,1.6-2c0.7-0.6,1.4-1,2.2-1.3c0.8-0.3,1.6-0.5,2.4-0.5c1,0,1.9,0.2,2.7,0.7c0.8,0.5,1.5,1,2.1,1.8    c0.6,0.7,1.1,1.5,1.4,2.4c0.4,0.9,0.5,1.7,0.5,2.6c0,1.3-0.3,2.5-0.8,3.6c-0.5,1.1-1.3,2.1-2.1,2.8c-0.9,0.8-1.9,1.4-3.1,1.8    c-1.2,0.4-2.4,0.7-3.5,0.7c-2.1,0-3.9-0.4-5.6-1.1c-1.7-0.8-3.1-1.8-4.4-3.1s-2.4-2.7-3.3-4.4c-1-1.7-1.7-3.4-2.3-5.2    c-0.6-1.8-1-3.6-1.3-5.4c-0.3-1.8-0.4-3.5-0.4-5.1c0-4.3,0.8-8.4,2.5-12.3c1.7-3.8,3.8-7.4,6.4-10.7h-12.7l-6.8-6.8h36.6    c1,1.1,1.8,2.1,2.6,3c0.7,0.8,1.3,1.5,1.8,2.3c0.6,0.8,0.9,1.3,0.9,1.5c-1.7,0-3.3,0.2-4.6,0.5c-1.3,0.3-2.6,0.7-3.9,1.1    c-2.9,1.2-5.4,2.6-7.4,4.4c-2,1.7-3.6,3.7-4.8,5.9c-1.2,2.2-2,4.7-2.5,7.4c-0.5,2.7-0.7,5.6-0.7,8.7c0,1.2,0.2,2.5,0.5,4    c0.4,1.5,0.9,2.9,1.5,4.2c0.7,1.3,1.5,2.5,2.4,3.5C554.2,494.6,555.3,495.2,556.4,495.5z"/>
		<path id="XMLID_93_" fill="#FFF200" d="M606.3,453.8v52.8c-1-1.5-1.6-2.3-1.8-2.6c-0.2-0.3-0.3-0.4-0.4-0.4    c-0.1-0.1-0.2-0.2-0.4-0.2c-0.3-0.1-0.6-0.2-0.9-0.4s-0.6-0.5-0.9-0.9c-0.1-0.3-0.2-0.5-0.3-0.7c-0.1-0.2-0.2-0.5-0.2-0.7    c-0.1-0.3-0.2-0.6-0.2-0.9c0-0.3-0.1-0.6-0.2-0.9c-0.1-0.7-0.2-1.3-0.4-2c-0.2-0.7-0.4-1.3-0.7-1.9c-1.2-2.6-2.6-4.7-4.3-6.4    c-1.7-1.6-3.6-3.1-5.9-4.4c-1.8-1.1-3.7-2-5.7-2.6c-2-0.7-4.2-1.1-6.4-1.2l-7-9.9c4.8-3.4,9.5-6.4,14.2-8.9    c4.7-2.5,9.6-4.6,14.7-6.3v-1.5h-30.2l-6.7-6.8h48.8l6.7,6.8H606.3z M599.5,465.2c-2.7,1-5.3,2.2-7.8,3.6    c-2.6,1.4-5.1,2.8-7.5,4.4c3,1.4,5.9,3.1,8.5,5.2c2.6,2,4.9,4.4,6.8,7.2V465.2z"/>
		<path id="XMLID_109_" fill="#FFF200" d="M625.5,453.8v50.4c-0.3,0-0.9-0.3-1.6-0.9c-0.8-0.6-1.5-1.2-2.3-1.9    c-0.9-0.8-1.9-1.7-2.9-2.8v-36.4c0-2.8-0.5-5-1.4-6.5c-1-1.5-2.7-2.1-5.3-1.8l-5.8-7.1c1,0.1,1.8,0.1,2.3,0.1c0.6,0,1,0,1.4,0    c0.4,0,0.7,0,0.9,0s0.5,0,0.8,0c2,0,3.6,0.4,4.9,1.1c1.2,0.7,2.3,1.9,3.3,3.4c-0.1-0.6-0.2-1.2-0.3-2c-0.1-0.7-0.2-1.5-0.3-2.5    c-0.1-1-0.2-2.1-0.4-3.4c-0.2-1.3-0.3-2.8-0.5-4.6l4.2,3.3c0.1,0.9,0.2,1.6,0.3,1.9c0.1,0.4,0.2,0.7,0.4,0.9    c0.2,0.3,0.4,0.6,0.7,0.9l1,1h7.2l6.8,6.8H625.5z"/>
		<path id="XMLID_111_" fill="#FFF200" d="M649.2,454.7c-0.3-0.2-0.7-0.4-1-0.6c-0.1-0.1-0.2-0.1-0.3-0.2c-0.1-0.1-0.2-0.1-0.3-0.2    h-14.8l-6.8-6.8h39.6c-0.1-1.3-0.5-2.2-1.1-3s-1.5-1.1-2.7-1.1c-2.6,0-5.3,0.1-8.2,0.3c-2.9,0.2-5.6,0.3-8.2,0.3    c-1.4,0-2.9-0.3-4.5-0.8c-1.6-0.5-3.1-1.3-4.5-2.2s-2.5-2.2-3.5-3.5c-0.9-1.4-1.4-2.9-1.4-4.6c0-1.1,0.1-2.3,0.4-3.7    c0.3-1.4,1-2.6,2.2-3.8l4.4,1.4c-0.8,1-1.3,1.8-1.5,2.3c-0.3,0.6-0.4,1.1-0.4,1.6c0,1.3,0.3,2.2,0.8,2.9c0.5,0.7,1.2,1.1,2,1.4    c0.9,0.3,1.9,0.5,3.2,0.6c0.6,0.1,1.2,0.1,1.8,0c0.6,0,1.2,0,1.8,0c1.9,0,3.9-0.1,6.1-0.3c2.1-0.2,4.2-0.3,6.1-0.3    c1.8,0,3.6,0.3,5.2,0.9c1.6,0.6,3,1.5,4.2,2.6c1.2,1.1,2.2,2.4,2.9,4c0.7,1.5,1.2,3.2,1.3,5.1h6.3l6.8,6.8h-31.1l1-1.3    c0.1,0.2,0.1,0.3,0.2,0.4c0.1,0.1,0.2,0.1,0.2,0.2c0,0.1,0.1,0.1,0.2,0.2c0.2,0.2,0.4,0.4,0.5,0.6c0.2,0.3,0.5,0.5,0.9,0.7    c0.4,0.2,1,0.4,1.5,0.6c0.4,0.2,0.8,0.3,1.2,0.5c0.4,0.2,0.8,0.4,1.3,0.6c0.4,0.2,0.9,0.4,1.3,0.7c0.4,0.2,0.9,0.5,1.3,0.7    c0.9,0.5,1.8,1.2,2.7,1.9s1.6,1.6,2.3,2.6c0.7,1,1.2,2.2,1.6,3.5c0.4,1.3,0.6,2.8,0.6,4.5c0,1.6-0.2,3-0.6,4.2    c-0.4,1.3-0.9,2.4-1.5,3.3c-0.6,1-1.3,1.8-2.2,2.6c-0.8,0.7-1.7,1.3-2.5,1.8c-1.7,0.9-3.3,1.6-4.9,2c1.2,0.5,2.2,1,3.1,1.5    c0.9,0.5,1.7,0.9,2.4,1.4c0.8,0.5,1.5,1,2.3,1.6c0.8,0.6,1.7,1.2,2.6,2c0.8,0.6,1.6,1.3,2.5,2.1c0.9,0.8,1.7,1.6,2.5,2.4    c0.9,0.9,1.7,1.8,2.6,2.7l2.5,10.7c-3-3.4-6.1-6.4-9.2-8.8c-3.1-2.4-6.3-4.5-9.5-6.2c-3.2-1.7-6.5-3.2-9.9-4.3    c-3.4-1.2-6.9-2.2-10.6-3.1l-7.4-15.6c1.7,1.1,3.3,2,4.7,2.7c1.5,0.7,2.9,1.3,4.2,1.8c1.3,0.4,2.5,0.7,3.7,0.9    c1.2,0.2,2.3,0.2,3.5,0.2c1.3,0,2.6-0.1,3.9-0.3c1.4-0.2,2.7-0.5,3.9-1c1.2-0.5,2.4-1.1,3.4-1.9c1-0.8,1.8-1.8,2.4-3.1    c0.3-0.8,0.4-1.7,0.1-2.6c-0.3-0.9-0.7-1.8-1.4-2.5c-0.7-0.8-1.5-1.3-2.5-1.8c-1-0.4-2-0.5-3.1-0.3c-0.1,1.1-0.5,2.3-1.1,3.3    c-0.7,1.1-1.4,2.1-2.4,2.9c-0.9,0.8-2,1.5-3.1,2s-2.3,0.7-3.4,0.7c-1.7,0-3.2-0.4-4.6-1.3s-2.1-2.4-2.1-4.5c0-1.7,0.4-3.2,1.2-4.4    c0.8-1.2,1.8-2.2,2.9-3c0.6-0.4,1.2-0.8,1.8-1.1c0.6-0.3,1.2-0.7,1.9-1c0.4-0.2,0.9-0.4,1.3-0.6c0.5-0.2,0.9-0.4,1.3-0.6    L649.2,454.7z"/>
		<path id="XMLID_113_" fill="#FFF200" d="M727.7,453.8l1-1.3c0.1,0.3,0.2,0.6,0.3,0.7c0.1,0.2,0.2,0.3,0.3,0.5    c0.2,0.2,0.4,0.4,0.5,0.6c0.1,0.1,0.2,0.2,0.2,0.2c0,0.1,0.1,0.1,0.2,0.2c1.9,0.3,3.7,0.8,5.5,1.7c1.7,0.9,3.3,2,4.6,3.3    c1.3,1.4,2.3,2.9,3.1,4.7c0.8,1.8,1.2,3.7,1.2,5.7c0,2.3-0.5,4.2-1.4,5.7c-0.9,1.5-2.1,2.8-3.5,3.8c-0.8,0.5-1.5,1-2.3,1.4    c-0.8,0.4-1.5,0.8-2.3,1.2c-0.5,0.3-1,0.5-1.5,0.7c-0.5,0.2-1,0.5-1.5,0.7c2.3,1.3,4.1,2.2,5.6,3c1.4,0.7,2.8,1.5,4,2.2    c0.7,0.4,1.4,0.9,2.2,1.4c0.7,0.5,1.5,1.1,2.3,1.8c0.8,0.7,1.7,1.5,2.6,2.4c1,0.9,2.1,2,3.3,3.3l3.2,11.2    c-2.9-3.5-6.1-6.5-9.4-9.1c-3.3-2.6-6.7-4.8-10.2-6.6c-3.5-1.8-7.1-3.4-10.7-4.5c-3.6-1.2-7.2-2.1-10.7-2.7l-6.8-16.6    c3.4,2.3,6.4,3.9,9,4.8c2.6,0.9,5.1,1.3,7.6,1.3c1,0,2.4-0.1,4-0.4c1.6-0.3,3.2-0.7,4.7-1.3c1.5-0.6,2.8-1.3,3.9-2.3    c1.1-1,1.6-2.1,1.6-3.4c0-1.9-0.8-3.4-2.3-4.4c-1.5-1.1-3.3-1.6-5.3-1.6c-0.5,0-0.8,0-1.1,0.1c-0.2,1.1-0.6,2.3-1.2,3.3    s-1.4,2.1-2.4,3c-0.9,0.9-2,1.6-3.1,2.2c-1.1,0.5-2.3,0.8-3.4,0.8c-1.8,0-3.4-0.5-4.7-1.6c-1.4-1.1-2-2.7-2-4.7    c0-1.7,0.4-3.1,1.3-4.2c0.8-1.1,1.9-2.1,3.1-2.9c0.6-0.4,1.2-0.8,1.8-1.1c0.6-0.3,1.2-0.6,1.8-0.9c1.1-0.4,2.2-0.8,3.2-1.2    c-0.2,0.1-0.4,0-0.7-0.2s-0.7-0.3-1.1-0.5c-0.4-0.1-0.9-0.2-1.3-0.2c-0.4-0.1-0.8-0.1-1-0.2h-13.1l-7.1-6.8h50.1l6.7,6.8H727.7z"/>
		<path id="XMLID_115_" fill="#FFF200" d="M787.7,453.8v52.8c-1-1.5-1.6-2.3-1.8-2.6c-0.2-0.3-0.3-0.4-0.4-0.4    c-0.1-0.1-0.2-0.2-0.4-0.2c-0.3-0.1-0.6-0.2-0.9-0.4c-0.3-0.2-0.6-0.5-0.9-0.9c-0.1-0.3-0.2-0.5-0.3-0.7c-0.1-0.2-0.2-0.5-0.2-0.7    c-0.1-0.3-0.2-0.6-0.2-0.9c0-0.3-0.1-0.6-0.2-0.9c-0.1-0.7-0.2-1.3-0.4-2c-0.2-0.7-0.4-1.3-0.7-1.9c-1.2-2.6-2.6-4.7-4.3-6.4    c-1.7-1.6-3.6-3.1-5.9-4.4c-1.8-1.1-3.7-2-5.7-2.6c-2-0.7-4.2-1.1-6.4-1.2l-7-9.9c4.8-3.4,9.5-6.4,14.2-8.9    c4.7-2.5,9.6-4.6,14.7-6.3v-1.5h-30.2l-6.7-6.8h48.8l6.7,6.8H787.7z M780.9,465.2c-2.7,1-5.3,2.2-7.8,3.6    c-2.6,1.4-5.1,2.8-7.5,4.4c3,1.4,5.9,3.1,8.5,5.2c2.6,2,4.9,4.4,6.8,7.2V465.2z"/>
		<path id="XMLID_118_" fill="#FFF200" d="M839.6,501.6c-1.3,0-2.3-0.4-3.2-1.1s-1.6-1.6-2.2-2.6c-0.6-1-1-2.1-1.3-3.2    c-0.3-1.1-0.4-2.1-0.4-2.9v-34.6c-1.7,0-3-0.5-3.7-1.5c-0.7-1-1.1-2.2-1.1-3.6c0-1.6,0.5-2.7,1.5-3.3c1-0.6,2.1-0.9,3.3-0.9    c1,0,1.9,0.3,2.7,0.9c0.8,0.6,1.5,1.4,2.1,2.3s1,1.9,1.3,2.9c0.3,1,0.5,1.9,0.5,2.6v35.6c0.3-0.1,0.6-0.1,1.1-0.1    c1.7,0,2.9,0.5,3.5,1.5c0.7,1,1,2.2,1,3.6c0,1.7-0.5,2.9-1.5,3.5C842.2,501.3,841,501.6,839.6,501.6z M844,457h-0.2    c-1.7,0-2.9-0.5-3.6-1.6c-0.7-1.1-1-2.3-1-3.6c0-1.6,0.4-2.7,1.3-3.4c0.9-0.7,2-1,3.4-1c1.2,0,2.3,0.4,3.2,1.1    c0.9,0.7,1.6,1.6,2.1,2.6c0.5,1,0.9,2.1,1.2,3.2c0.2,1.1,0.4,2.1,0.4,2.8v34c0.2-0.1,0.4-0.1,0.7-0.1c1.8,0,3,0.5,3.6,1.6    c0.6,1.1,0.9,2.3,0.9,3.6c0,1.6-0.5,2.7-1.5,3.3c-1,0.7-2.1,1-3.3,1c-1,0-2-0.3-2.9-0.9c-0.9-0.6-1.6-1.4-2.3-2.3    c-0.7-0.9-1.2-1.9-1.5-2.9c-0.4-1-0.6-1.9-0.6-2.7V457z"/>
	</g>
</g>
</svg>